<svg height="380.36578" width="929.48669" xmlns="http://www.w3.org/2000/svg" xmlns:xlink="http://www.w3.org/1999/xlink"><marker id="a" orient="auto" overflow="visible" refX="0" refY="0"><path d="m0 0 5-5-17.5 5 17.5 5-5-5z" fill-rule="evenodd" stroke="#000" stroke-width="1pt" transform="matrix(.8 0 0 .8 10 0)"/></marker><g transform="translate(-481.58815 -4.553872)"><g transform="translate(0 -.707107)"><path d="m846.22351 77.563698h204.70297v208.23364h-204.70297z" fill="#00f" fill-rule="evenodd" stroke="#000" stroke-width="1.07625"/><path d="m1053.3183 211.69127c.036 57.87345-46.8699 104.80812-104.74337 104.80812-57.87346 0-104.77913-46.93467-104.74337-104.80812-.0358-57.87345 46.86991-104.80812 104.74337-104.80812 57.87347 0 104.77917 46.93467 104.74337 104.80812z" fill="#fff" fill-rule="evenodd" stroke="#000" transform="matrix(.955243 0 0 .966479 42.45529 -23.5031)"/><path d="m789.69456 285.83547-115.95918-.4532-35.40234-110.42378 94.07932-67.79245 93.54657 68.52573z" fill="#fff" stroke="#2c1515" stroke-width=".99" transform="matrix(.550685 0 0 .574272 544.4078 64.2373)"/><g stroke="#000" transform="translate(-74.14419 2.353822)"><path d="m987.04566 165.76986 69.44144.34002-56.1373 45.4562 21.1993-73.42944 21.7582 73.38796z" fill="none"/><g fill="#fbfbfb" fill-rule="evenodd"><path d="m340.12178 117.53991c0 8.44973-11.06516 15.2996-24.71474 15.2996-13.64957 0-24.71473-6.84987-24.71473-15.2996s11.06516-15.2996 24.71473-15.2996c13.64958 0 24.71474 6.84987 24.71474 15.2996z" transform="translate(707.3121 3.530676)"/><path d="m340.12178 117.53991c0 8.44973-11.06516 15.2996-24.71474 15.2996-13.64957 0-24.71473-6.84987-24.71473-15.2996s11.06516-15.2996 24.71473-15.2996c13.64958 0 24.71474 6.84987 24.71474 15.2996z" transform="translate(767.3336 48.25258)"/><path d="m340.12178 117.53991c0 8.44973-11.06516 15.2996-24.71474 15.2996-13.64957 0-24.71473-6.84987-24.71473-15.2996s11.06516-15.2996 24.71473-15.2996c13.64958 0 24.71474 6.84987 24.71474 15.2996z" transform="translate(646.1137 48.25257)"/><path d="m340.12178 117.53991c0 8.44973-11.06516 15.2996-24.71474 15.2996-13.64957 0-24.71473-6.84987-24.71473-15.2996s11.06516-15.2996 24.71473-15.2996c13.64958 0 24.71474 6.84987 24.71474 15.2996z" transform="translate(670.8285 108.2741)"/><path d="m340.12178 117.53991c0 8.44973-11.06516 15.2996-24.71474 15.2996-13.64957 0-24.71473-6.84987-24.71473-15.2996s11.06516-15.2996 24.71473-15.2996c13.64958 0 24.71474 6.84987 24.71474 15.2996z" transform="translate(742.6188 108.274)"/></g></g><g font-family="Arial"><text font-size="12" x="928.41418" y="120.80994"><tspan font-family="Arial" font-size="9" x="928.41418" y="120.80994">Cultural</tspan><tspan font-family="Arial" font-size="9" x="928.41418" y="129.80994">traditions</tspan></text><text font-size="9" x="987.82819" y="165.97079"><tspan font-family="Arial" font-size="9" x="987.82819" y="165.97079">Analysis &amp;</tspan><tspan font-family="Arial" font-size="9" x="987.82819" y="174.97079">synthesis</tspan></text></g></g><g font-family="Arial"><text font-size="8.012083" text-anchor="middle" transform="scale(1.041437 .960212)" x="945.36591" y="233.73221"><tspan font-family="Arial" font-size="8.012083" text-anchor="middle" x="945.36591" y="233.73221">Previous</tspan><tspan font-family="Arial" font-size="8.012083" text-anchor="middle" x="945.36591" y="240.94308">experiences</tspan></text><text font-size="9" text-anchor="middle" x="911.46063" y="223.95355"><tspan font-family="Arial" font-size="9" text-anchor="middle" x="911.46063" y="223.95355">New</tspan><tspan font-family="Arial" font-size="9" text-anchor="middle" x="911.46063" y="232.05354">information</tspan></text><text font-size="9" x="869.74133" y="164.55658"><tspan x="869.74133" y="164.55658">Genetic</tspan><tspan x="869.74133" y="173.55658">heritage</tspan></text></g></g><g transform="translate(-108.42815 -2.033957)"><path d="m718.06694 181.88069 61.16473-47.0226 66.8216 45.96194-64.34672 47.72971z" fill="#fff" fill-rule="evenodd" stroke="#000"/><text font-family="Arial" font-size="14" text-anchor="middle" x="782" y="175.30994"><tspan x="782" y="175.30994">Decision</tspan><tspan x="782" y="192.80994">(hypothesis)</tspan></text></g><path d="m882.72661 183.22252c0 21.60399-34.3661 39.11749-76.75883 39.11748-42.39274 0-76.75884-17.51349-76.75884-39.11748s34.3661-39.11749 76.75884-39.11749c42.39273 0 76.75883 17.5135 76.75883 39.11749z" fill="#fff" fill-rule="evenodd" stroke="#000" transform="matrix(.608321 0 0 .646034 -227.82125 59.562638)"/><text font-family="Arial" font-size="14" transform="matrix(.970373 0 0 1.030532 -541.28805 -7.506132)" x="787.37433" y="182.2563"><tspan x="787.37433" y="182.2563">Observations</tspan></text><g transform="translate(-526.13775 -.125478)"><path d="m1319.6616 136.72437h84.139496v84.139496h-84.139496z" fill="#fff" fill-rule="evenodd" stroke="#000"/><text font-family="Arial" font-size="18" text-anchor="middle" x="1360.9933" y="173.62766"><tspan x="1360.9933" y="173.62766">Action</tspan><tspan x="1360.9933" y="191.62766">(test)</tspan></text></g><path d="m606.23533 178.03763c-34.7794.33249-34.19.32685-34.19.32685" fill="none" stroke="#000" stroke-width=".759052"/><path d="m788.5116 179.00419c-52.16377-.32448-51.27979-.31898-51.27979-.31898" fill="none" stroke="#000" stroke-width=".905214"/><path d="m358.73543 178.10235c-48.97896.32526-48.14892.31975-48.14892.31975" fill="none" stroke="#000" stroke-width=".890936"/><g font-family="Arial"><text font-size="18" text-anchor="middle" x="866.74402" y="276.24542"><tspan x="866.74402" y="276.24542">Unfolding</tspan><tspan x="866.74402" y="294.24542">interaction</tspan><tspan x="866.74402" y="312.24542">with</tspan><tspan x="866.74402" y="330.24542">environment</tspan></text><text font-size="18" x="426.15002" y="330.33759"><tspan x="426.15002" y="330.33759">Feedback</tspan></text><text font-size="18" x="424.51611" y="352.76904"><tspan x="424.51611" y="352.76904">Feedback</tspan></text><text font-size="18" text-anchor="middle" x="156.8542" y="295.28677"><tspan x="156.8542" y="295.28677">Unfolding</tspan><tspan x="156.8542" y="317.78677">interaction</tspan><tspan x="156.8542" y="340.28677">with</tspan><tspan x="156.8542" y="362.78677">environment</tspan></text><text font-size="24" x="813.82416" y="36.428677"><tspan x="813.82416" y="36.428677">Act</tspan></text><text font-size="24" x="632.9942" y="35.297325"><tspan x="632.9942" y="35.297325">Decide</tspan></text><text font-size="24" x="434.85846" y="35.384892"><tspan x="434.85846" y="35.384892">Orient</tspan></text><text font-size="24" x="224.26772" y="35.384892"><tspan x="224.26772" y="35.384892">Observe</tspan></text><text font-size="18" text-anchor="middle" x="269.22449" y="67.624512"><tspan x="269.22449" y="67.624512">Implicit</tspan><tspan x="269.22449" y="85.624504">guidance</tspan><tspan x="269.22449" y="103.6245">&amp; control</tspan></text><text font-size="16" x="312.37769" y="163.77016"><tspan x="312.37769" y="163.77016">Feed</tspan></text><text font-size="16" x="302.9837" y="202.39011"><tspan x="302.9837" y="202.39011">forward</tspan></text><text font-size="16" x="574.83099" y="162.09648"><tspan x="574.83099" y="162.09648">Feed</tspan></text><text font-size="16" x="729.31085" y="162.09648"><tspan x="729.31085" y="162.09648">Feed</tspan></text><text font-size="16" x="569.96869" y="204.89157"><tspan x="569.96869" y="204.89157">forward</tspan></text><text font-size="16" x="728.62372" y="208.02293"><tspan x="728.62372" y="208.02293">forward</tspan></text><text font-size="18" text-anchor="middle" x="69.176407" y="111.581"><tspan x="69.176407" y="111.581">Unfolding</tspan><tspan x="69.176407" y="134.08102">circumstances</tspan></text><text font-size="18" text-anchor="middle" x="96.314713" y="235.79115"><tspan x="96.314713" y="235.79115">Outside</tspan><tspan x="96.314713" y="258.29117">information</tspan><tspan x="96.314713" y="280.79117"/></text></g><path d="m221.29098 163.44208c-90.26832-39.13669-90.22216-41.47019-90.22216-41.47019" fill="none" stroke="#000"/><path d="m223.13152 195.34579c-90.26832 39.13669-90.22216 41.47019-90.22216 41.47019" fill="none" stroke="#000"/><path d="m249.38317 219.88014-72.26177 60.16263" fill="none" stroke="#000"/><path d="m260.10587 152.98275c.79601-48.05559.78254-47.2412.78254-47.2412" fill="none" marker-start="url(#a)" stroke="#000" stroke-width="1.811416"/><path d="m311.64903 72.199788c332.12958-1.476131 332.12958-1.476131 332.12958-1.476131" fill="none" stroke="#000"/><text font-family="Arial" font-size="18" text-anchor="middle" x="679.10468" y="60.49276"><tspan x="679.10468" y="60.49276">Implicit</tspan><tspan x="679.10468" y="78.492752">guidance</tspan><tspan x="679.10468" y="96.492752">&amp; control</tspan></text><path d="m719.06132 72.199788h107.7576" fill="none" stroke="#000"/><path d="m829.77118 132.72118c0-60.521392 0-60.521392 0-60.521392h-19.18971" fill="none" stroke="#000"/><path d="m420.72476 346.29717c-154.47982 0-154.47982 0-154.47982 0" fill="none" stroke="#000"/><path d="m424.65122 324.88971c-98.96875 0-98.96875 0-98.96875 0" fill="none" stroke="#000" stroke-width="1.671402"/><path d="m802.46275 230.02714v93.73435h-295.96437" fill="none" stroke="#000"/><path d="m865.19834 220.92004v41.33168" fill="none" stroke="#000"/><path d="m505.02225 346.76025h360.17609" fill="none" stroke="#000"/><path d="m865.19834 346.02218c0-13.28518 0-13.28518 0-13.28518" fill="none" stroke="#000"/><text font-family="Arial" font-size="18" x="719.06128" y="371.85452"><tspan x="719.06128" y="371.85452">John Boyd's OODA loop</tspan></text><path d="m265.33081 216.83779v128.10352" fill="none" stroke="#000" stroke-width="1.018188"/><path d="m282.35598 215.63649c43.48007 107.12616 43.48007 107.12616 43.48007 107.12616" fill="none" marker-start="url(#a)" stroke="#000" stroke-width="1.032965"/><path d="m265.82025 216.92315-5.09506 18.32861 5.64588-5.09129 6.05898 5.09129z" fill-rule="evenodd" stroke="#000" stroke-width=".619605"/><path d="m250.36547 216.99055-16.64916 9.20342 7.58836.4626.61106 7.89044z" fill-rule="evenodd" stroke="#000" stroke-width=".619605"/><path d="m225.84149 192.99262-18.7275 3.34341 7.03389 2.88471-1.96581 7.66604z" fill-rule="evenodd" stroke="#000" stroke-width=".619605"/><path d="m225.05887 162.91774-15.99482-10.29869 3.18908 6.90122-6.6584 4.27766z" fill-rule="evenodd" stroke="#000" stroke-width=".619605"/><path d="m362.91893 177.89553-18.32861-5.09506 5.0913 5.64588-5.0913 6.05898z" fill-rule="evenodd" stroke="#000" stroke-width=".619605"/><path d="m608.21115 178.7502-18.32861-5.09506 5.0913 5.64588-5.0913 6.05898z" fill-rule="evenodd" stroke="#000" stroke-width=".619605"/><path d="m791.11195 179.60488-18.32861-5.09506 5.0913 5.64588-5.0913 6.05898z" fill-rule="evenodd" stroke="#000" stroke-width=".619605"/><path d="m830.56691 134.82726 5.09505-18.32861-5.64588 5.0913-6.05898-5.0913z" fill-rule="evenodd" stroke="#000" stroke-width=".619605"/><path d="m507.01842 303.32163c167.85556 0 166.68989-.59204 166.68989-.59204" fill="none" stroke="#000" stroke-width=".971993"/><path d="m673.40372 224.80543v78.59584" fill="none" stroke="#000" stroke-width="1.034069"/><text font-family="Arial" font-size="18" x="426.31805" y="307.22583"><tspan x="426.31805" y="307.22583">Feedback</tspan></text><path d="m420.41943 300.01698c-78.63026 0-79.48493-.85468-79.48493-.85468" fill="none" stroke="#000"/><path d="m296.9444 207.30793c44.39167 91.40366 44.39167 91.40366 44.39167 91.40366" fill="none" marker-start="url(#a)" stroke="#000" stroke-width=".877863"/></svg>